<?xml version="1.0" encoding="utf-8"?>
<!-- Generator: Adobe Illustrator 19.2.1, SVG Export Plug-In . SVG Version: 6.00 Build 0)  -->
<svg version="1.1" id="Laag_1" xmlns="http://www.w3.org/2000/svg" xmlns:xlink="http://www.w3.org/1999/xlink" x="0px" y="0px"
	 viewBox="0 0 81.5 96" style="enable-background:new 0 0 81.5 96;" xml:space="preserve">
<style type="text/css">
	.st0{fill:#CEAB6A;}
	.st1{fill:#201027;}
	.st2{fill:#AF8F5A;}
</style>
<g>
	<path class="st0" d="M72.5,13.3L72.2,13h-63l-0.4,0.3C4.9,16,2.5,20.8,2.5,26.1v35c0,5.2,2.4,10.1,6.2,12.7l25.4,17.5
		c2,1.4,4.2,2.1,6.4,2.1s4.4-0.7,6.5-2.1l25.4-17.5c3.9-2.7,6.2-7.4,6.4-12.7v-35C78.8,20.7,76.5,15.9,72.5,13.3z M75.8,61.1
		c-0.1,4.3-2,8.2-5,10.3L45.4,88.9c-3,2-6.5,2-9.5,0L10.4,71.4c-3.1-2.1-4.9-6-4.9-10.3v-8.4l-0.1-0.6c0-0.6,0-1.1,0.1-1.5V26.1
		c0-4.1,1.7-7.9,4.6-10.1h61.1c2.8,2.2,4.6,6,4.6,10.1C75.8,26.1,75.8,61.1,75.8,61.1z"/>
	<polygon class="st0" points="33.1,83.4 33.1,83.4 45,75.1 	"/>
	<path class="st0" d="M65.6,61.5c-5.1-0.7-8-1.4-8-1.4s-0.6,1.2-1.5,2.8l-7.6,14.4L36,84.2L35,85l0.6,0.4c3.1,2.1,7,2.1,10.1,0
		l23-15.6c3.1-2.1,5-6,5.1-10.3v-6.9C73.1,54.8,70.5,61.5,65.6,61.5z"/>
	<path class="st0" d="M51,56.8C50.9,56.8,50.9,56.8,51,56.8c-0.1,0-0.5,1.2-1.1,3L45,75.1l5-15.3C50.6,58.1,51,56.8,51,56.8z"/>
	<path class="st0" d="M64.4,43.2l0.1,3l9.3,5.7V28.3c0-4.2-1-8.2-4.1-10.3H11.6c-3.2,2.1-4.1,6-4.1,10.3v19.9
		c7.6-6.3,14.9-12.7,15.9-13.6c7-2.3,12.5-3.3,14.5-4c4.1-8.1,8.3-8.5,8.3-8.5l0.3,9.9l8.4,7.1l0.7,4.1l11.2,7.1
		c0,0-0.8,4.9-5.4,6.7c-4.4,0.1-8.8-0.1-10.1-0.2c1.1,0.1,5.6,0.4,10.2,0.2c4.6-1.7,5.4-6.7,5.4-6.7l-11.2-7.1L55,39.1l-8.2-6.9
		c0.2,0,0.4-0.1,0.6-0.1c5.6-7.3,10.2-7,10.2-7l-1.1,9.8L64.4,43.2z M23.7,22l-0.3,0.3l0.3,0.3c0,0,0,0.1,0,0.2L23.4,23
		c0,0-0.1,0-0.2,0L23,22.7L22.7,23c0.2,0.3,0.3,0.5,0.2,0.6l-1.1,0.6l-0.1,0.1l0.4,0.4c0.2,0.2,0.2,0.4,0,0.6s-0.4,0.2-0.6,0
		L21.2,25l-1.7,1.8l2.8,2.6l1.3,2.4v0.1h-0.1L21,30.7L18.4,28l-2.6,2.7L13.4,32h-0.1v-0.1l1.3-2.5l2.7-2.6L15.6,25l-0.3,0.3
		c-0.2,0.2-0.4,0.2-0.6,0s-0.2-0.4,0-0.6l0.4-0.4L15,24.2l-1-0.6c-0.1-0.1,0-0.3,0.2-0.6l-0.3-0.3L13.6,23c0,0-0.1,0-0.2,0l-0.2-0.2
		c0,0,0-0.1,0-0.2l0.3-0.3L13.2,22c0,0,0-0.1,0-0.2l0.2-0.2c0,0,0.1,0,0.2,0l0.3,0.3l0.3-0.3c0,0,0.1,0,0.2,0l0.2,0.2
		c0,0,0,0.1,0,0.2l-0.3,0.3l0.3,0.3c0.3-0.2,0.5-0.3,0.6-0.2l0.6,1.1l0.1,0.1l0.4-0.4c0.2-0.2,0.4-0.2,0.6,0s0.2,0.4,0,0.6L16.6,24
		l1.9,1.8l1.8-1.8L20,23.7c-0.2-0.2-0.2-0.4,0-0.6c0.1-0.1,0.4-0.1,0.6,0l0.4,0.4l0.1-0.1l0.6-1.1c0.1-0.1,0.3,0,0.6,0.2l0.3-0.3
		L22.3,22c0,0,0-0.1,0-0.2l0.2-0.2c0,0,0.1,0,0.2,0l0.3,0.3l0.3-0.3c0,0,0.1,0,0.2,0l0.2,0.2C23.7,21.8,23.7,21.9,23.7,22z
		 M59.4,25.5h2.2v-2.2l1.5-1.8l1.5,1.8v2.2h2.2l1.8,1.5l-1.8,1.5h-2.2v2.2l-1.5,1.8l-1.5-1.8v-2.2h-2.2L57.6,27L59.4,25.5z"/>
	<path class="st1" d="M5.4,52.1l0.1,0.6v-2.1C5.4,51,5.4,51.5,5.4,52.1z"/>
	<path class="st2" d="M74,52l-0.2-0.1v0.8C73.9,52.3,74,52,74,52z"/>
	<polygon class="st2" points="33.3,83.9 35,85 35,85 33.3,83.8 	"/>
	<path class="st2" d="M64.4,43.2l-7.9-8.3l1.1-9.8c0,0-4.6-0.3-10.2,7c-0.2,0-0.4,0.1-0.6,0.1l8.2,6.9l0.7,4.1l11.2,7.1
		c0,0-0.8,5-5.4,6.7c-4.6,0.2-9.1-0.1-10.2-0.2c-0.1,0-0.2,0-0.3,0c0,0-0.4,1.3-1,3l-5,15.3l-11.9,8.3l0.2,0.4L35,85l1-0.8l12.5-6.9
		l7.6-14.4c0.9-1.6,1.5-2.8,1.5-2.8s2.9,0.7,8,1.4c4.9,0,7.5-6.7,8.2-8.9v-0.8l-9.3-5.7L64.4,43.2z"/>
	<polygon class="st2" points="32.9,83.6 32.9,83.6 33.3,83.9 33.3,83.8 	"/>
	<polygon class="st2" points="33.1,83.4 32.9,83.6 33.3,83.8 	"/>
	<path class="st2" d="M51,56.8L51,56.8c0.1,0,0.2,0,0.3,0C51.1,56.8,51,56.8,51,56.8z"/>
	<polygon class="st0" points="50.7,3.9 45.5,5.9 40.8,1.2 36.2,5.9 30.9,3.9 30.9,11.1 50.7,11.1 	"/>
	<path class="st0" d="M59.6,28h2h0.5v0.5v2l1,1.2l1-1.2v-2V28h0.5h2l1.2-1l-1.2-1h-2h-0.5v-0.5v-2l-1-1.2l-1,1.2v2V26h-0.5h-2
		l-1.2,1L59.6,28z M60.1,26.4h2.6v-2.6c0-0.2,0.2-0.4,0.4-0.4s0.4,0.2,0.4,0.4v2.6h2.7c0.2,0,0.4,0.2,0.4,0.4
		c-0.1,0.3-0.2,0.4-0.4,0.4h-2.7v2.7c0,0.2-0.2,0.4-0.4,0.4s-0.4-0.2-0.4-0.4v-2.7h-2.6c-0.2,0-0.4-0.2-0.4-0.4S59.9,26.4,60.1,26.4
		z"/>
	<path class="st0" d="M21.2,30c0.1,0,0.2,0,0.2,0c0-0.1,0-0.2,0-0.2L19,27.4l-0.2,0.2L21.2,30z"/>
	<path class="st0" d="M17.2,25.6h-0.1c0,0,0,0,0,0.2l0.6,0.6l0.2-0.2L17.2,25.6z"/>
	<path class="st0" d="M15.3,29.6c0,0.1,0,0.2,0,0.2c0.1,0,0.2,0,0.2,0l2.4-2.4l-0.2-0.2L15.3,29.6z"/>
	<path class="st0" d="M19.7,25.6L19.7,25.6c0-0.1-0.1-0.1-0.2-0.1l-0.6,0.6l0.2,0.2L19.7,25.6z"/>
	<rect x="17.7" y="27" transform="matrix(0.726 -0.6877 0.6877 0.726 -13.7163 19.7942)" class="st0" width="0.6" height="0.2"/>
	<polygon class="st0" points="19,26.3 18.9,26.1 18.3,26.7 18.5,26.8 	"/>
	
		<rect x="18.2" y="26.7" transform="matrix(0.7158 -0.6983 0.6983 0.7158 -13.5268 20.3696)" class="st0" width="0.2" height="0.2"/>
</g>
</svg>
